# xmcd
#
# Track frame offsets:
#	150
#	13359
#	27546
#	42720
#	54979
#	66067
#	80819
#	93393
#	109056
#	125553
#	143400
#	158241
#
# Disc length: 2296 seconds
#
# Revision: 1
# Processed by: cddbd v1.5.2PL0 Copyright (c) Steve Scherf et al.
# Submitted via: audiograbber 1.83.01
#
DISCID=a708f60c
DTITLE=Joey and Rory - Hymns
DYEAR=2016
DGENRE=Country
TTITLE0=Take My Hand, Precious Lord
TTITLE1=I Surrender All
TTITLE2=He Touched Me
TTITLE3=Softly and Tenderly
TTITLE4=Jesus Loves Me
TTITLE5=It Is Well with My Soul
TTITLE6=The Old Rugged Cross
TTITLE7=I Need Thee Every Hour
TTITLE8=How Great Thou Art
TTITLE9=I'll Fly Away
TTITLE10=Jesus Paid It All
TTITLE11=Suppertime
EXTD=
EXTT0=
EXTT1=
EXTT2=
EXTT3=
EXTT4=
EXTT5=
EXTT6=
EXTT7=
EXTT8=
EXTT9=
EXTT10=
EXTT11=
PLAYORDER=
